<?xml version="1.0" encoding="UTF-8"?>
<!DOCTYPE svg PUBLIC "-//W3C//DTD SVG 1.1//EN" "http://www.w3.org/Graphics/SVG/1.1/DTD/svg11.dtd">
<!-- Creator: CorelDRAW -->
<svg xmlns="http://www.w3.org/2000/svg" xml:space="preserve" width="444.061mm" height="185.321mm" version="1.1" style="shape-rendering:geometricPrecision; text-rendering:geometricPrecision; image-rendering:optimizeQuality; fill-rule:evenodd; clip-rule:evenodd"
viewBox="0 0 40242.91 16794.68"
 xmlns:xlink="http://www.w3.org/1999/xlink"
 xmlns:xodm="http://www.corel.com/coreldraw/odm/2003">
 <defs>
  <style type="text/css">
   <![CDATA[
    .fil0 {fill:#FEFEFE;fill-rule:nonzero}
   ]]>
  </style>
 </defs>
 <g id="Layer_x0020_1">
  <metadata id="CorelCorpID_0Corel-Layer"/>
  <path class="fil0" d="M6388.93 11973.31l674.7 -1830.58 232.74 0 672.08 1830.58 -232.74 0 -167.37 -470.72 -779.31 0 -169.98 470.72 -230.13 0zm465.49 -648.55l648.55 0 -324.27 -904.83 -324.27 904.83zm1386.01 648.55l0 -1830.58 562.24 0c322.53,0 560.07,81.94 712.62,245.83 152.55,163.88 228.83,388.78 228.83,674.69 0,280.69 -76.28,502.54 -228.83,665.55 -152.55,163.01 -390.09,244.51 -712.62,244.51l-562.24 0zm219.67 -183.06l337.35 0c177.83,0 319.48,-29.2 424.96,-87.6 105.48,-58.41 180.88,-142.09 226.21,-251.06 45.33,-108.96 68,-238.41 68,-388.35 0,-153.42 -22.67,-285.04 -68,-394.88 -45.33,-109.84 -120.73,-194.39 -226.21,-253.67 -105.48,-59.28 -247.12,-88.91 -424.96,-88.91l-337.35 0 0 1464.46zm2081.63 183.06l-687.78 -1830.58 237.98 0 577.94 1597.84 583.17 -1597.84 232.74 0 -687.78 1830.58 -256.28 0zm1195.1 0l0 -1830.58 1132.34 0 0 180.44 -912.67 0 0 638.09 834.23 0 0 177.83 -834.23 0 0 653.78 912.67 0 0 180.44 -1132.34 0zm1474.93 0l0 -1830.58 591.02 0c142.95,0 259.77,23.54 350.42,70.61 90.66,47.07 157.78,111.58 201.37,193.52 43.58,81.93 65.38,172.59 65.38,271.96 0,115.07 -30.95,218.8 -92.84,311.21 -61.9,92.4 -158.21,157.78 -288.98,196.13l400.12 787.15 -258.9 0 -371.34 -755.76 -15.7 0 -360.89 0 0 755.76 -219.67 0zm219.67 -928.37l355.66 0c141.22,0 244.08,-33.99 308.59,-101.99 64.51,-67.99 96.76,-155.16 96.76,-261.51 0,-108.09 -31.82,-193.96 -95.46,-257.59 -63.64,-63.64 -167.8,-95.45 -312.5,-95.45l-353.05 0 0 716.53zm1759.97 928.37l0 -1650.14 -546.56 0 0 -180.44 1312.79 0 0 180.44 -546.56 0 0 1650.14 -219.67 0zm1035.59 0l0 -1830.58 219.67 0 0 1830.58 -219.67 0zm1189.88 31.38c-134.24,0 -251.05,-24.41 -350.43,-73.22 -99.37,-48.82 -176.08,-116.81 -230.13,-203.98 -54.04,-87.17 -81.06,-188.29 -81.06,-303.36l230.13 0c0,71.48 16.56,137.3 49.68,197.44 33.12,60.15 81.51,108.09 145.14,143.83 63.63,35.74 142.52,53.61 236.67,53.61 123.78,0 219.67,-29.64 287.66,-88.92 68,-59.27 101.99,-133.36 101.99,-222.28 0,-73.22 -15.69,-132.06 -47.07,-176.52 -31.38,-44.45 -73.66,-80.63 -126.84,-108.52 -53.17,-27.89 -114.19,-52.3 -183.05,-73.22 -68.87,-20.92 -140.79,-44.46 -215.75,-70.61 -141.21,-48.82 -245.82,-109.4 -313.82,-181.75 -67.99,-72.35 -101.99,-166.94 -101.99,-283.75 -1.74,-97.63 20.93,-184.37 68,-260.2 47.07,-75.83 113.76,-135.11 200.05,-177.82 86.3,-42.72 188.73,-64.07 307.28,-64.07 116.81,0 218.36,21.79 304.66,65.38 86.29,43.58 153.42,103.73 201.36,180.44 47.94,76.7 72.79,163.88 74.53,261.51l-230.13 0c0,-50.56 -13.07,-100.68 -39.22,-150.36 -26.15,-49.69 -65.81,-90.23 -118.99,-121.6 -53.17,-31.38 -119.86,-47.08 -200.05,-47.08 -99.37,-1.74 -180.88,23.54 -244.51,75.84 -63.64,52.3 -95.45,124.65 -95.45,217.06 0,78.45 22.22,138.6 66.68,180.44 44.46,41.84 106.78,76.27 186.98,103.29 80.2,27.02 172.6,57.97 277.2,92.84 87.17,31.38 165.63,68 235.36,109.84 69.74,41.84 124.22,95.88 163.44,162.14 39.23,66.25 58.84,150.8 58.84,253.67 0,87.16 -22.67,169.54 -68,247.12 -45.32,77.58 -113.75,140.78 -205.28,189.6 -91.53,48.82 -206.15,73.22 -343.88,73.22zm928.37 -31.38l0 -1830.58 219.67 0 0 1830.58 -219.67 0zm606.71 0l0 -1830.58 219.67 0 975.44 1467.08 0 -1467.08 219.67 0 0 1830.58 -219.67 0 -975.44 -1467.08 0 1467.08 -219.67 0zm2588.96 31.38c-170.85,0 -320.78,-39.67 -449.8,-118.99 -129.01,-79.32 -229.26,-190.03 -300.74,-332.12 -71.48,-142.08 -107.22,-306.4 -107.22,-492.94 0,-186.54 36.17,-351.3 108.52,-494.26 72.35,-142.96 175.21,-254.54 308.59,-334.73 133.36,-80.2 290.71,-120.3 472.03,-120.3 205.72,0 377.01,49.68 513.87,149.06 136.85,99.37 225.33,236.23 265.43,410.58l-253.67 0c-24.41,-109.84 -82.38,-197.01 -173.9,-261.52 -91.53,-64.51 -208.77,-96.76 -351.73,-96.76 -134.24,0 -251.06,30.08 -350.43,90.23 -99.38,60.15 -176.52,146.01 -231.44,257.58 -54.92,111.58 -82.38,244.95 -82.38,400.12 0,155.16 27.02,288.53 81.07,400.11 54.04,111.58 129.01,197.44 224.89,257.59 95.89,60.15 207.47,90.22 334.74,90.22 195.26,0 342.58,-57.09 441.95,-171.29 99.38,-114.19 156.04,-270.66 169.98,-469.41l-528.25 0 0 -172.59 753.15 0 0 978.05 -201.36 0 -18.31 -300.74c-66.25,106.35 -147.32,188.29 -243.21,245.82 -95.88,57.54 -223.15,86.3 -381.8,86.3zm2426.83 0c-125.52,0 -235.8,-23.1 -330.82,-69.3 -95.01,-46.2 -169.11,-110.71 -222.28,-193.52 -53.17,-82.81 -79.76,-180.88 -79.76,-294.2 0,-123.78 36.18,-234.05 108.52,-330.81 72.35,-96.76 177.4,-173.03 315.13,-228.82 -59.28,-64.51 -101.99,-125.97 -128.14,-184.37 -26.15,-58.41 -39.23,-121.61 -39.23,-189.6 0,-116.82 41.41,-213.13 124.22,-288.98 82.81,-75.83 196.57,-113.75 341.27,-113.75 94.14,0 176.08,17.87 245.82,53.6 69.74,35.74 123.78,85 162.14,147.75 38.35,62.77 55.79,134.24 52.3,214.45l-217.05 0c1.74,-78.45 -22.23,-137.73 -71.92,-177.83 -49.69,-40.1 -106.78,-60.15 -171.29,-60.15 -78.45,0 -139.47,20.93 -183.06,62.77 -43.58,41.84 -65.38,95.01 -65.38,159.52 0,55.79 15.26,109.84 45.77,162.14 30.51,52.3 76.28,110.71 137.3,175.21l577.94 583.17c50.56,-73.22 105.48,-161.27 164.75,-264.13l81.07 -141.22 232.74 0 -115.07 203.99c-76.7,137.72 -149.93,252.79 -219.67,345.19l394.88 397.5 -277.2 0 -243.2 -245.82c-92.4,99.37 -188.29,170.42 -287.66,213.13 -99.38,42.71 -210.09,64.07 -332.12,64.07zm-413.19 -564.86c0,108.09 38.36,197.87 115.07,269.35 76.71,71.48 176.96,107.22 300.74,107.22 92.4,0 176.52,-17.87 252.36,-53.6 75.83,-35.74 150.36,-94.59 223.59,-176.53l-554.41 -562.24c-115.06,45.33 -200.05,102.86 -254.97,172.59 -54.92,69.74 -82.38,150.81 -82.38,243.21zm2479.14 533.48l0 -1830.58 256.28 0 659.01 1276.18 653.78 -1276.18 258.9 0 0 1830.58 -219.67 0 0 -1438.31 -611.93 1176.8 -164.76 0 -611.93 -1174.18 0 1435.7 -219.67 0zm2099.94 0l674.7 -1830.58 232.74 0 672.08 1830.58 -232.74 0 -167.37 -470.72 -779.31 0 -169.98 470.72 -230.13 0zm465.49 -648.55l648.55 0 -324.27 -904.83 -324.27 904.83zm1386.01 648.55l0 -1830.58 591.02 0c142.95,0 259.77,23.54 350.42,70.61 90.66,47.07 157.78,111.58 201.37,193.52 43.58,81.93 65.38,172.59 65.38,271.96 0,115.07 -30.95,218.8 -92.84,311.21 -61.9,92.4 -158.21,157.78 -288.98,196.13l400.12 787.15 -258.9 0 -371.34 -755.76 -15.7 0 -360.89 0 0 755.76 -219.67 0zm219.67 -928.37l355.66 0c141.22,0 244.08,-33.99 308.59,-101.99 64.51,-67.99 96.76,-155.16 96.76,-261.51 0,-108.09 -31.82,-193.96 -95.46,-257.59 -63.64,-63.64 -167.8,-95.45 -312.5,-95.45l-353.05 0 0 716.53zm1331.1 928.37l0 -1830.58 219.67 0 0 829 763.61 -829 277.2 0 -679.93 729.62 690.39 1100.96 -266.74 0 -580.56 -930.98 -203.98 217.06 0 713.92 -219.67 0zm1522 0l0 -1830.58 1132.34 0 0 180.44 -912.67 0 0 638.09 834.23 0 0 177.83 -834.23 0 0 653.78 912.67 0 0 180.44 -1132.34 0zm1903.8 0l0 -1650.14 -546.56 0 0 -180.44 1312.79 0 0 180.44 -546.56 0 0 1650.14 -219.67 0zm1035.59 0l0 -1830.58 219.67 0 0 1830.58 -219.67 0zm606.71 0l0 -1830.58 219.67 0 975.44 1467.08 0 -1467.08 219.67 0 0 1830.58 -219.67 0 -975.44 -1467.08 0 1467.08 -219.67 0zm2588.96 31.38c-170.85,0 -320.78,-39.67 -449.8,-118.99 -129.01,-79.32 -229.26,-190.03 -300.74,-332.12 -71.48,-142.08 -107.22,-306.4 -107.22,-492.94 0,-186.54 36.17,-351.3 108.52,-494.26 72.35,-142.96 175.21,-254.54 308.59,-334.73 133.36,-80.2 290.71,-120.3 472.03,-120.3 205.72,0 377.01,49.68 513.87,149.06 136.85,99.37 225.33,236.23 265.43,410.58l-253.67 0c-24.41,-109.84 -82.38,-197.01 -173.9,-261.52 -91.53,-64.51 -208.77,-96.76 -351.73,-96.76 -134.24,0 -251.06,30.08 -350.43,90.23 -99.38,60.15 -176.52,146.01 -231.44,257.58 -54.92,111.58 -82.38,244.95 -82.38,400.12 0,155.16 27.02,288.53 81.07,400.11 54.04,111.58 129.01,197.44 224.89,257.59 95.89,60.15 207.47,90.22 334.74,90.22 195.26,0 342.58,-57.09 441.95,-171.29 99.38,-114.19 156.04,-270.66 169.98,-469.41l-528.25 0 0 -172.59 753.15 0 0 978.05 -201.36 0 -18.31 -300.74c-66.25,106.35 -147.32,188.29 -243.21,245.82 -95.88,57.54 -223.15,86.3 -381.8,86.3zm-18663.46 -2789.37l1078.78 0 0 -2947.28 1167.82 0 0 -945.37 -3414.4 0 0 945.37 1167.81 0 0 2947.28zm2719.21 0l1056.67 0 0 -2224.33 989.89 1512.52 22.11 0 995.53 -1523.65 0 2235.46 1073.14 0 0 -3892.65 -1139.91 0 -928.76 1507.02 -928.61 -1507.02 -1140.06 0 0 3892.65zm4515.59 0l1134.42 0 278.07 -695.05 1501.39 0 283.57 695.05 1156.68 0 -1657.05 -3920.4 -1039.9 0 -1657.19 3920.4zm1729.46 -1534.78l439.23 -1106.67 433.73 1106.67 -872.96 0zm3002.77 1534.78l1078.93 0 0 -1178.94 461.49 0 11.13 0 784.08 1178.94 1245.72 0 -928.76 -1356.86c483.89,-205.81 800.84,-600.52 800.84,-1195.56l0 -11.13c0,-383.73 -116.78,-684.06 -344.85,-906.5 -261.32,-266.94 -672.8,-422.6 -1267.83,-422.6l-1840.75 0 0 3892.65zm1078.93 -2024.16l0 -934.25 706.18 0c361.47,0 583.9,155.67 583.9,461.49l0 11.13c0,283.72 -211.3,461.63 -578.27,461.63l-711.81 0zm2919.38 2024.16l1078.93 0 0 -1006.51 394.85 -439.38 978.62 1445.89 1295.73 0 -1523.65 -2218.84 1473.64 -1673.81 -1279.1 0 -1340.09 1579.29 0 -1579.29 -1078.93 0 0 3892.65zm-29850.71 0l1078.92 0 0 -1390.25 1840.61 0 0 -895.22 -1840.61 0 0 -661.81 2035.29 0 0 -945.37 -3114.21 0 0 3892.65zm3625.71 0l1084.42 0 0 -3892.65 -1084.42 0 0 3892.65zm1796.24 0l1078.92 0 0 -1178.94 461.49 0 11.13 0 784.08 1178.94 1245.72 0 -928.76 -1356.86c483.89,-205.81 800.85,-600.52 800.85,-1195.56l0 -11.13c0,-383.73 -116.79,-684.06 -344.85,-906.5 -261.32,-266.94 -672.79,-422.6 -1267.82,-422.6l-1840.75 0 0 3892.65zm1078.92 -2024.16l0 -934.25 706.18 0c361.47,0 583.9,155.67 583.9,461.49l0 11.13c0,283.72 -211.3,461.63 -578.26,461.63l-711.82 0zm4448.67 2090.93c945.37,0 1573.8,-472.76 1573.8,-1267.97l0 -11.13c0,-728.44 -556.15,-1017.64 -1451.38,-1212.18 -539.39,-122.42 -672.93,-200.18 -672.93,-378.24l0 -11.13c0,-139.05 127.91,-250.19 389.22,-250.19 344.85,0 734.08,133.4 1090.06,383.73l539.39 -761.82c-422.61,-339.22 -939.9,-517.29 -1601.56,-517.29 -934.24,0 -1507.03,522.77 -1507.03,1245.72l0 11.13c0,800.7 639.56,1034.26 1468.15,1223.31 528.26,122.42 656.18,211.45 656.18,372.6l0 11.13c0,166.93 -155.81,266.94 -444.87,266.94 -450.5,0 -878.75,-161.29 -1262.34,-467.12l-600.67 717.45c478.25,428.1 1134.42,645.04 1823.99,645.04z"/>
  <g>
   <path class="fil0" d="M15873.06 13543.8l-1278.82 0 0 -639.41 1278.82 0 0 639.41zm-1278.82 2611.47l0 -2611.47 1278.82 0 0 2611.47 -639.41 639.41 -639.41 -639.41zm1278.82 0c0,353.14 -286.27,639.41 -639.41,639.41 -353.14,0 -639.41,-286.27 -639.41,-639.41l1278.82 0zm-15233.65 -639.41l14594.23 0 0 1278.82 -14594.23 0 -639.41 -639.41 639.41 -639.41zm0 1278.82c-353.14,0 -639.41,-286.27 -639.41,-639.41 0,-353.14 286.27,-639.41 639.41,-639.41l0 1278.82zm639.41 -16155.27l0 15515.86 -1278.82 0 0 -15515.86 639.41 -639.41 639.41 639.41zm-1278.82 0c0,-353.14 286.27,-639.41 639.41,-639.41 353.14,0 639.41,286.27 639.41,639.41l-1278.82 0zm15694.38 639.41l-15054.97 0 0 -1278.82 15054.97 0 639.41 639.41 -639.41 639.41zm0 -1278.82c353.14,0 639.41,286.27 639.41,639.41 0,353.14 -286.27,639.41 -639.41,639.41l0 -1278.82zm-639.41 3865.51l0 -3226.1 1278.82 0 0 3226.1 -1278.82 0zm0 0l1278.82 0 0 639.41 -1278.82 0 0 -639.41z"/>
  </g>
 </g>
</svg>
